<svg xmlns="http://www.w3.org/2000/svg" width="256" height="256"><path d="M251.734 128C251.734 59.662 196.337 4.266 128 4.266 59.662 4.266 4.266 59.663 4.266 128z" fill="#ee5281"/><path d="M256 132.266H0V128C0 57.421 57.421 0 128 0c70.579 0 128 57.421 128 128zM8.607 123.734h238.784C245.14 59.825 192.447 8.534 128 8.534c-64.449 0-117.138 51.291-119.391 115.2z"/><path d="M251.734 128c0 68.338-55.397 123.734-123.734 123.734C59.662 251.734 4.266 196.337 4.266 128z" fill="#fff"/><path d="M128 256C57.421 256 0 198.579 0 128a4.268 4.268 0 0 1 4.266-4.266h247.466A4.268 4.268 0 0 1 256 128C256 198.579 198.579 256 128 256zM8.608 132.266c2.252 63.909 54.943 115.2 119.392 115.2s117.139-51.291 119.392-115.2z"/><circle cx="128" cy="128" r="46.934" fill="#777"/><path d="M128 179.2c-28.233 0-51.2-22.968-51.2-51.2 0-28.233 22.968-51.2 51.2-51.2 28.233 0 51.2 22.967 51.2 51.2 0 28.232-22.968 51.2-51.2 51.2zm0-93.866c-23.526 0-42.666 19.14-42.666 42.666 0 23.526 19.14 42.666 42.666 42.666 23.526 0 42.666-19.14 42.666-42.666 0-23.526-19.14-42.666-42.666-42.666z"/><circle cx="128" cy="128" r="29.866" fill="#fff"/><path d="M128 162.134c-18.82 0-34.134-15.313-34.134-34.134 0-18.821 15.313-34.134 34.134-34.134 18.821 0 34.134 15.313 34.134 34.134 0 18.821-15.314 34.134-34.134 34.134zm0-59.734c-14.116 0-25.6 11.484-25.6 25.6 0 14.116 11.484 25.6 25.6 25.6 14.116 0 25.6-11.484 25.6-25.6 0-14.116-11.484-25.6-25.6-25.6z"/></svg>